<svg width="1024" height="1024" viewBox="0 0 1024 1024" fill="none" xmlns="http://www.w3.org/2000/svg">
<rect width="1024" height="1024" fill="white"/>
<path d="M440.706 268.346C552.655 268.346 643.402 359.094 643.402 471.043Z" fill="black"/>
<path d="M349.017 709.058C289.223 614.413 317.45 489.228 412.081 429.434Z" fill="black"/>
<path d="M765.317 569.094C709.464 666.109 585.536 699.475 488.521 643.622Z" fill="black"/>
<path d="M532.082 662.28C456.169 644.19 409.296 567.977 427.386 492.078Z" fill="black"/>
<path d="M431.212 492.341C441.178 450.523 483.168 424.695 524.986 434.675C566.805 444.64 592.619 486.616 582.653 528.435C572.687 570.253 530.712 596.081 488.893 586.101C448.759 576.535 423.046 537.301 430.313 496.682" fill="black"/>
<path d="M377.272 457.173C411.966 420.494 458.924 402.39 508.024 414.083C532.153 419.837 554.34 431.83 572.358 448.892" fill="black"/>
<path d="M560.423 453.843C580.639 472.946 589.106 501.387 582.653 528.443C572.673 570.261 530.697 596.075 488.893 586.109C447.074 576.129 421.246 534.168 431.212 492.349C441.192 450.531 483.167 424.717 524.986 434.683C536.808 437.495 547.816 443.049 557.096 450.888" fill="black"/>
<path d="M637.121 420.26C644.203 444.032 645.959 469.289 640.205 493.404C628.497 542.504 590.391 580.039 542.005 594.445" fill="black"/>
<path d="M537.279 596.023C522.602 600.406 507.011 600.835 492.105 597.279C445.19 586.1 416.221 538.999 427.4 492.098C438.579 445.182 485.68 416.213 532.596 427.407C579.512 438.586 608.466 485.687 597.287 532.588C590.462 561.215 569.689 584.473 542.019 594.467" fill="black"/>
<path d="M117.78 591.359C117.78 412.977 262.396 268.346 440.778 268.346Z" fill="black"/>
<path d="M792.131 811.721C640.376 905.495 441.334 858.479 347.56 706.725Z" fill="black"/>
<path d="M643.403 128.99C798.627 216.925 853.167 414.024 765.246 569.249Z" fill="black"/>
</svg>
